<svg width="47" height="47" viewBox="0 0 47 47" fill="none" xmlns="http://www.w3.org/2000/svg">
<mask id="mask0_150_37" style="mask-type:alpha" maskUnits="userSpaceOnUse" x="0" y="0" width="47" height="47">
<rect width="47" height="47" fill="#D9D9D9"/>
</mask>
<g mask="url(#mask0_150_37)">
<path d="M8.43599 40.1458C7.44671 40.1458 6.60935 39.8031 5.92394 39.1177C5.23852 38.4323 4.89581 37.5949 4.89581 36.6057V16.2693C4.89581 15.2801 5.23852 14.4427 5.92394 13.7573C6.60935 13.0719 7.44671 12.7292 8.43599 12.7292H16.6458V9.41518C16.6458 8.42589 16.9885 7.58854 17.6739 6.90313C18.3594 6.21771 19.1967 5.875 20.186 5.875H26.814C27.8033 5.875 28.6406 6.21771 29.326 6.90313C30.0114 7.58854 30.3541 8.42589 30.3541 9.41518V12.7292H38.564C39.5533 12.7292 40.3906 13.0719 41.076 13.7573C41.7614 14.4427 42.1041 15.2801 42.1041 16.2693V36.6057C42.1041 37.5949 41.7614 38.4323 41.076 39.1177C40.3906 39.8031 39.5533 40.1458 38.564 40.1458H8.43599ZM19.5833 12.7292H27.4166V9.41518C27.4166 9.26439 27.3538 9.12632 27.2282 9.00099C27.1028 8.87533 26.9648 8.8125 26.814 8.8125H20.186C20.0352 8.8125 19.8971 8.87533 19.7718 9.00099C19.6461 9.12632 19.5833 9.26439 19.5833 9.41518V12.7292ZM39.1666 28.8854H28.3958V32.3125H18.6041V28.8854H7.83331V36.6057C7.83331 36.7564 7.89614 36.8945 8.0218 37.0198C8.14714 37.1455 8.2852 37.2083 8.43599 37.2083H38.564C38.7148 37.2083 38.8528 37.1455 38.9782 37.0198C39.1038 36.8945 39.1666 36.7564 39.1666 36.6057V28.8854ZM21.5416 29.375H25.4583V25.4583H21.5416V29.375ZM7.83331 25.9479H18.6041V22.5208H28.3958V25.9479H39.1666V16.2693C39.1666 16.1186 39.1038 15.9805 38.9782 15.8552C38.8528 15.7295 38.7148 15.6667 38.564 15.6667H8.43599C8.2852 15.6667 8.14714 15.7295 8.0218 15.8552C7.89614 15.9805 7.83331 16.1186 7.83331 16.2693V25.9479Z" fill="white"/>
</g>
</svg>
