<svg width="58" height="43" viewBox="0 0 58 43" fill="none" xmlns="http://www.w3.org/2000/svg">
<mask id="mask0_7_147" style="mask-type:alpha" maskUnits="userSpaceOnUse" x="0" y="0" width="58" height="43">
<rect width="57.3333" height="43" fill="#D9D9D9"/>
</mask>
<g mask="url(#mask0_7_147)">
<path d="M10.176 37.1426L5.94946 33.9727H51.3378L47.1118 37.1426H10.176ZM8.36105 32.0086C8.61546 31.5171 8.94553 31.0554 9.35124 30.6237C9.75695 30.1919 10.2232 29.7899 10.7499 29.4179V15.7116H8.36105V13.5755H10.7499V12.0593H8.36105V9.92319H10.7499V8.40699H8.36105V6.27087H24.1188C25.306 6.27087 26.3225 6.588 27.1682 7.22225C28.0138 7.8565 28.4367 8.619 28.4367 9.50976V9.92319H48.9722V12.0593H28.4367V12.4674C28.4367 13.3644 28.0138 14.1294 27.1682 14.7625C26.3225 15.3952 25.306 15.7116 24.1188 15.7116H19.5703V27.2956C20.3117 27.3781 21.0415 27.5106 21.7597 27.6934C22.478 27.8761 23.1449 28.1386 23.7604 28.4808C24.4739 26.6088 25.8734 25.1008 27.9589 23.9569C30.0448 22.8129 32.3925 22.2409 35.0019 22.2409C38.2042 22.2409 40.9349 23.0642 43.194 24.7107C45.4535 26.3573 46.5833 28.3718 46.5833 30.7544V32.0086H8.36105ZM27.2978 29.3216H42.4857C42.0689 28.0396 41.1691 26.987 39.7863 26.1637C38.4035 25.3402 36.8087 24.9284 35.0019 24.9284C33.1458 24.9284 31.5018 25.3309 30.0701 26.136C28.6383 26.941 27.7142 28.0029 27.2978 29.3216ZM19.5703 9.92319H24.8539V8.95837C24.8539 8.79772 24.7849 8.66559 24.6467 8.56197C24.5089 8.45865 24.333 8.40699 24.1188 8.40699H19.5703V9.92319ZM19.5703 13.5755H24.1188C24.333 13.5755 24.5089 13.5238 24.6467 13.4205C24.7849 13.3169 24.8539 13.1848 24.8539 13.0241V12.0593H19.5703V13.5755ZM13.5981 9.92319H16.7222V8.40699H13.5981V9.92319ZM13.5981 13.5755H16.7222V12.0593H13.5981V13.5755ZM13.5981 27.933C14.1037 27.7377 14.6106 27.5884 15.1186 27.4851C15.6271 27.3815 16.1616 27.298 16.7222 27.2347V15.7116H13.5981V27.933Z" fill="white"/>
</g>
</svg>
