<svg width="48" height="48" viewBox="0 0 48 48" fill="none" xmlns="http://www.w3.org/2000/svg">
<mask id="mask0_134_61" style="mask-type:alpha" maskUnits="userSpaceOnUse" x="0" y="0" width="48" height="48">
<rect width="47.2977" height="48" fill="#D9D9D9"/>
</mask>
<g mask="url(#mask0_134_61)">
<path d="M39.464 18.7499L37.4061 16.6614L38.6186 15.3809C38.745 15.2526 38.8083 15.1083 38.8083 14.9479C38.8083 14.7876 38.745 14.6434 38.6186 14.5154L32.9946 8.80795C32.8685 8.67961 32.7264 8.61545 32.5684 8.61545C32.4104 8.61545 32.2682 8.67961 32.1418 8.80795L30.88 10.0384L28.7728 7.89995L30.0612 6.54245C30.7283 5.86545 31.5507 5.53528 32.5285 5.55195C33.5063 5.56861 34.3288 5.91545 34.9959 6.59245L40.8017 12.4844C41.4688 13.1614 41.8023 13.9878 41.8023 14.9634C41.8023 15.9391 41.4688 16.7654 40.8017 17.4424L39.464 18.7499ZM17.2366 41.3574C16.5695 42.0344 15.7552 42.373 14.7938 42.373C13.8324 42.373 13.0182 42.0344 12.3511 41.3574L6.62119 35.542C5.94128 34.8523 5.60133 34.0005 5.60133 32.9865C5.60133 31.9725 5.94128 31.1204 6.62119 30.4304L7.83368 29.1999L9.9409 31.3384L8.69785 32.5689C8.5714 32.6973 8.50817 32.8416 8.50817 33.0019C8.50817 33.1623 8.5714 33.3064 8.69785 33.4344L14.3524 39.173C14.4785 39.3013 14.6206 39.3654 14.7786 39.3654C14.9366 39.3654 15.0788 39.3013 15.2052 39.173L16.4177 37.9114L18.5249 40.0499L17.2366 41.3574ZM36.6065 26.1539L39.1305 23.5924C39.257 23.4641 39.3202 23.3166 39.3202 23.1499C39.3202 22.9833 39.257 22.8358 39.1305 22.7074L24.9225 8.28845C24.796 8.16012 24.6507 8.09595 24.4864 8.09595C24.3222 8.09595 24.1769 8.16012 24.0504 8.28845L21.5264 10.8499C21.4002 10.9783 21.3372 11.1224 21.3372 11.2824C21.3372 11.4428 21.4002 11.5871 21.5264 11.7154L35.7536 26.1539C35.8801 26.2819 36.0223 26.3459 36.1803 26.3459C36.338 26.3459 36.48 26.2819 36.6065 26.1539ZM23.2473 39.7114L25.7713 37.1189C25.8975 36.9909 25.9605 36.8468 25.9605 36.6864C25.9605 36.5261 25.8975 36.382 25.7713 36.254L11.5741 21.8459C11.448 21.7179 11.306 21.6539 11.148 21.6539C10.99 21.6539 10.8479 21.7179 10.7218 21.8459L8.16723 24.4074C8.04078 24.5358 7.97755 24.6833 7.97755 24.8499C7.97755 25.0166 8.04078 25.1641 8.16723 25.2924L22.3753 39.7114C22.5017 39.8398 22.6471 39.9039 22.8113 39.9039C22.9755 39.9039 23.1209 39.8398 23.2473 39.7114ZM22.4019 28.5884L28.2008 22.7344L24.8958 19.3804L19.1275 25.2654L22.4019 28.5884ZM25.3353 41.819C24.6557 42.5089 23.8144 42.854 22.8113 42.854C21.8082 42.854 20.9669 42.5089 20.2873 41.819L6.09057 27.4114C5.41066 26.7218 5.07071 25.8679 5.07071 24.8499C5.07071 23.8319 5.41066 22.9781 6.09057 22.2885L8.61459 19.7074C9.29417 19.0178 10.1335 18.6729 11.1327 18.6729C12.1322 18.6729 12.9717 19.0178 13.6513 19.7074L17.0203 23.1269L22.8192 17.2424L19.4497 13.8539C18.7701 13.1643 18.4303 12.3071 18.4303 11.2824C18.4303 10.2581 18.7701 9.40111 19.4497 8.71145L21.993 6.13095C22.6725 5.44095 23.5119 5.09595 24.5111 5.09595C25.5102 5.09595 26.3496 5.44095 27.0292 6.13095L41.2564 20.5694C41.9363 21.2591 42.2763 22.1109 42.2763 23.1249C42.2763 24.1389 41.9363 24.9908 41.2564 25.6804L38.7137 28.2614C38.0341 28.9511 37.1896 29.2959 36.1803 29.2959C35.1706 29.2959 34.326 28.9511 33.6464 28.2614L30.3075 24.8419L24.5091 30.7269L27.8786 34.1459C28.5581 34.8356 28.8979 35.6876 28.8979 36.7019C28.8979 37.716 28.5581 38.5678 27.8786 39.2574L25.3353 41.819Z" fill="white"/>
</g>
</svg>
