<svg width="48" height="48" viewBox="0 0 48 48" fill="none" xmlns="http://www.w3.org/2000/svg">
<mask id="mask0_351_51" style="mask-type:alpha" maskUnits="userSpaceOnUse" x="0" y="0" width="48" height="48">
<rect width="47.2977" height="48" fill="#D9D9D9"/>
</mask>
<g mask="url(#mask0_351_51)">
<path d="M12.8098 41V7H25.6196C28.6135 7 31.1686 8.07367 33.2848 10.221C35.4007 12.3687 36.4587 14.9617 36.4587 18C36.4587 21.0383 35.4007 23.6313 33.2848 25.779C31.1686 27.9263 28.6135 29 25.6196 29H18.722V41H12.8098ZM18.722 23H25.862C27.2169 23 28.3768 22.5105 29.3418 21.5315C30.3065 20.5522 30.7889 19.375 30.7889 18C30.7889 16.625 30.3065 15.4478 29.3418 14.4685C28.3768 13.4895 27.2169 13 25.862 13H18.722V23Z" fill="white"/>
</g>
</svg>
